<svg
    width="280"
    height="280"
    viewBox="0 0 200 200"
    fill="none"
    xmlns="http://www.w3.org/2000/svg"
>
    <path d="M72 77.5L119.5 86L113.5 105.5L69 87.5L72 77.5Z" fill="white" />
    <rect
    x="83.1152"
    y="46.3538"
    width="7.15739"
    height="31.1163"
    transform="rotate(41.1649 83.1152 46.3538)"
    fill="white"
    />
    <path
    d="M87.055 117.493L73.243 122.135ZM73.243 122.135L39.287 133.547L95.69 149.468V115.705"
    fill="white"
    />
    <path
    d="M87.055 117.493L73.243 122.135L39.287 133.547L95.69 149.468V115.705"
    stroke="black"
    strokeWidth="2"
    strokeLinecap="round"
    strokeLinejoin="round"
    />
    <path
    d="M129.968 124.266C128.072 124.969 126.108 125.472 124.107 125.768V131.436C124.107 132.586 123.65 133.688 122.837 134.501C122.024 135.314 120.922 135.771 119.772 135.771C118.622 135.771 117.52 135.314 116.707 134.501C115.894 133.688 115.437 132.586 115.437 131.436V125.768C107.935 124.657 101.359 120.706 96.837 115.043L95.691 115.705V149.468L106.45 152.505L162.853 133.548L129.968 124.266Z"
    fill="#FACC15"
    />
    <path
    d="M95.6901 115.705V149.468L106.45 152.504L162.853 133.548L129.969 124.266"
    stroke="black"
    strokeWidth="2"
    strokeLinecap="round"
    strokeLinejoin="round"
    />
    <path d="M106.45 152.504V195H162.853V166.569" fill="white" />
    <path
    d="M106.45 152.504V195H162.853V166.569"
    stroke="black"
    strokeWidth="2"
    strokeLinecap="round"
    strokeLinejoin="round"
    />
    <path
    d="M85.918 178.353L39.287 165.192V195H106.45V152.505L85.918 178.353Z"
    fill="#D2A904"
    />
    <path
    d="M39.287 165.191V195H106.45V152.504"
    stroke="black"
    strokeWidth="2"
    strokeLinecap="round"
    strokeLinejoin="round"
    />
    <path
    d="M39.287 133.548L18.755 159.396L85.918 178.353L106.45 152.504L39.287 133.548Z"
    fill="white"
    stroke="black"
    strokeWidth="2"
    strokeLinecap="round"
    strokeLinejoin="round"
    />
    <path
    d="M162.853 133.548L106.45 152.504L126.361 178.834L182.765 159.877L162.853 133.548Z"
    fill="white"
    stroke="black"
    strokeWidth="2"
    strokeLinecap="round"
    strokeLinejoin="round"
    />
    <path
    d="M27.225 85.917L5.48596 125.842H48.964L27.225 85.917Z"
    fill="#FACC15"
    />
    <path
    d="M27.225 85.917L5.48596 125.842H48.964L27.225 85.917Z"
    stroke="black"
    strokeWidth="2"
    strokeLinecap="round"
    strokeLinejoin="round"
    />
    <path
    d="M25.665 98.394L19.344 112.626"
    stroke="black"
    strokeWidth="2"
    strokeLinecap="round"
    strokeLinejoin="round"
    />
    <path
    d="M19.344 112.626L30.924 107.441"
    stroke="black"
    strokeWidth="2"
    strokeLinecap="round"
    strokeLinejoin="round"
    />
    <path
    d="M30.9239 107.441C30.8929 107.414 27.8829 124.041 27.8829 124.041"
    stroke="black"
    strokeWidth="2"
    strokeLinecap="round"
    strokeLinejoin="round"
    />
    <path
    d="M25.33 117.029L27.883 124.041L33.431 118.617"
    stroke="black"
    strokeWidth="2"
    strokeLinecap="round"
    strokeLinejoin="round"
    />
    <path
    d="M65.442 110.056L60.052 113.503L64.029 119.722L69.419 116.276L65.442 110.056Z"
    className="stroke-foreground"
    strokeWidth="2"
    strokeLinecap="round"
    strokeLinejoin="round"
    />
    <path
    d="M64.601 103L54 109.778L57.446 115.168L68.048 108.39L64.601 103Z"
    className="stroke-foreground"
    strokeWidth="2"
    strokeLinecap="round"
    strokeLinejoin="round"
    />
    <path
    d="M60.066 113.494L66.879 112.305"
    className="stroke-foreground"
    strokeWidth="2"
    strokeLinecap="round"
    strokeLinejoin="round"
    />
    <path
    d="M61.28 115.424L68.111 114.232"
    className="stroke-foreground"
    strokeWidth="2"
    strokeLinecap="round"
    strokeLinejoin="round"
    />
    <path
    d="M62.587 117.468L69.418 116.276"
    className="stroke-foreground"
    strokeWidth="2"
    strokeLinecap="round"
    strokeLinejoin="round"
    />
    <path
    d="M181.472 124.29L177.783 129.518L183.815 133.773L187.504 128.546L181.472 124.29Z"
    className="stroke-foreground"
    strokeWidth="2"
    strokeLinecap="round"
    strokeLinejoin="round"
    />
    <path
    d="M189.286 126.019L182.032 136.3L187.259 139.988L194.513 129.707L189.286 126.019Z"
    className="stroke-foreground"
    strokeWidth="2"
    strokeLinecap="round"
    strokeLinejoin="round"
    />
    <path
    d="M187.494 128.56L181.635 132.235"
    className="stroke-foreground"
    strokeWidth="2"
    strokeLinecap="round"
    strokeLinejoin="round"
    />
    <path
    d="M185.641 127.232L179.766 130.916"
    className="stroke-foreground"
    strokeWidth="2"
    strokeLinecap="round"
    strokeLinejoin="round"
    />
    <path
    d="M183.658 125.833L177.784 129.518"
    className="stroke-foreground"
    strokeWidth="2"
    strokeLinecap="round"
    strokeLinejoin="round"
    />
    <path
    d="M168.954 68.93L173.839 67.331L173.098 65.069L170.475 65.929L168.97 61.331L164.374 62.836L162.853 65.837L167.449 64.333L168.954 68.93Z"
    fill="#D2A904"
    />
    <path
    d="M168.954 68.93L173.839 67.331L173.098 65.069L170.475 65.929L168.97 61.331L164.374 62.836L162.853 65.837L167.449 64.333L168.954 68.93Z"
    stroke="black"
    strokeWidth="2"
    strokeLinecap="round"
    strokeLinejoin="round"
    />
    <path
    d="M174.673 84.042L171.318 85.14L169.797 88.141L175.413 86.303L174.673 84.042Z"
    fill="#D2A904"
    />
    <path
    d="M174.673 84.042L171.318 85.14L169.797 88.141L175.413 86.303L174.673 84.042Z"
    stroke="black"
    strokeWidth="2"
    strokeLinecap="round"
    strokeLinejoin="round"
    />
    <path
    d="M176.638 70.522C177.81 69.169 179.467 65.427 179.715 64.177C179.917 63.1514 179.909 62.0954 179.692 61.0729C179.474 60.0505 179.052 59.0827 178.45 58.228L173.854 59.732L172.333 62.733L176.929 61.229C177.895 62.5999 178.389 64.2478 178.337 65.9242C178.284 67.6005 177.688 69.2143 176.638 70.522Z"
    fill="#D2A904"
    />
    <path
    d="M176.638 70.522C177.81 69.169 179.467 65.427 179.715 64.177C179.917 63.1514 179.909 62.0954 179.692 61.0729C179.474 60.0505 179.052 59.0827 178.45 58.228L173.854 59.732L172.333 62.733L176.929 61.229C177.895 62.5999 178.389 64.2478 178.337 65.9242C178.284 67.6005 177.688 69.2143 176.638 70.522Z"
    stroke="black"
    strokeWidth="2"
    strokeLinecap="round"
    strokeLinejoin="round"
    />
    <path
    d="M176.325 91.449L177.701 95.651L179.221 92.65L178.586 90.709L176.325 91.449Z"
    fill="#D2A904"
    />
    <path
    d="M176.325 91.449L177.701 95.651L179.221 92.65L178.586 90.709L176.325 91.449Z"
    stroke="black"
    strokeWidth="2"
    strokeLinecap="round"
    strokeLinejoin="round"
    />
    <path
    d="M186.039 80.321L180.423 82.159L176.621 70.543C176.075 71.2206 175.418 71.8011 174.679 72.26L178.902 85.16L184.518 83.322L187.503 92.442L189.024 89.441L186.039 80.321Z"
    fill="#D2A904"
    />
    <path
    d="M186.039 80.321L180.423 82.159L176.621 70.543C176.075 71.2206 175.418 71.8011 174.679 72.26L178.902 85.16L184.518 83.322L187.503 92.442L189.024 89.441L186.039 80.321Z"
    stroke="black"
    strokeWidth="2"
    strokeLinecap="round"
    strokeLinejoin="round"
    />
    <path
    d="M184.518 83.323L178.902 85.161L174.679 72.261C178.428 69.935 179.512 64.899 176.929 61.23L172.333 62.734L173.838 67.331L168.953 68.93L167.448 64.333L162.852 65.837C162.94 70.333 166.799 73.743 171.189 73.402L175.412 86.302L169.796 88.14L172.781 97.26L177.699 95.65L176.324 91.448L181.209 89.849L182.584 94.051L187.502 92.441L184.517 83.321L184.518 83.323Z"
    fill="white"
    stroke="black"
    strokeWidth="2"
    strokeLinecap="round"
    strokeLinejoin="round"
    />
    <path
    d="M115.437 125.768V131.436C115.437 132.586 115.894 133.688 116.707 134.501C117.52 135.314 118.622 135.771 119.772 135.771C120.922 135.771 122.024 135.314 122.837 134.501C123.65 133.688 124.107 132.586 124.107 131.436V125.768C121.233 126.193 118.312 126.193 115.438 125.768H115.437Z"
    fill="white"
    stroke="black"
    strokeWidth="2"
    strokeLinecap="round"
    strokeLinejoin="round"
    />
    <path
    d="M124.107 67.733V62.157C124.107 61.0073 123.65 59.9047 122.837 59.0917C122.024 58.2787 120.922 57.822 119.772 57.822C118.622 57.822 117.52 58.2787 116.707 59.0917C115.894 59.9047 115.437 61.0073 115.437 62.157V67.733C118.311 67.308 121.233 67.308 124.107 67.733Z"
    fill="white"
    stroke="black"
    strokeWidth="2"
    strokeLinecap="round"
    strokeLinejoin="round"
    />
    <path
    d="M142.695 115.036L147.604 117.87C148.599 118.432 149.775 118.579 150.878 118.278C151.98 117.977 152.919 117.253 153.49 116.263C154.062 115.274 154.219 114.099 153.929 112.993C153.638 111.888 152.923 110.943 151.939 110.362L147.03 107.528C145.961 110.23 144.5 112.76 142.695 115.036Z"
    fill="white"
    stroke="black"
    strokeWidth="2"
    strokeLinecap="round"
    strokeLinejoin="round"
    />
    <path
    d="M96.7699 78.51L91.9409 75.722C90.9461 75.16 89.7695 75.0134 88.6672 75.3143C87.5648 75.6152 86.6258 76.3392 86.0545 77.3287C85.4831 78.3183 85.3256 79.4934 85.6161 80.5986C85.9066 81.7037 86.6218 82.6494 87.6059 83.23L92.4349 86.018C93.5043 83.3165 94.9649 80.7868 96.7699 78.51Z"
    fill="white"
    stroke="black"
    strokeWidth="2"
    strokeLinecap="round"
    strokeLinejoin="round"
    />
    <path
    d="M147.03 86.065L151.939 83.231C152.935 82.6562 153.661 81.7093 153.959 80.5988C154.256 79.4883 154.1 78.3051 153.525 77.3095C152.951 76.3139 152.004 75.5874 150.893 75.2899C149.783 74.9923 148.6 75.1481 147.604 75.723L142.695 78.557C144.5 80.8337 145.961 83.3634 147.03 86.065Z"
    fill="white"
    stroke="black"
    strokeWidth="2"
    strokeLinecap="round"
    strokeLinejoin="round"
    />
    <path
    d="M92.4349 107.574L87.6059 110.362C86.6103 110.937 85.8838 111.884 85.5863 112.994C85.2888 114.105 85.4446 115.288 86.0194 116.284C86.5943 117.279 87.5411 118.006 88.6516 118.303C89.7621 118.601 90.9453 118.445 91.9409 117.87L96.7699 115.082C94.9653 112.805 93.5047 110.275 92.4349 107.574Z"
    fill="white"
    stroke="black"
    strokeWidth="2"
    strokeLinecap="round"
    strokeLinejoin="round"
    />
    <path
    d="M136.812 120.629C150 111.218 153.063 92.897 143.652 79.709C134.241 66.521 115.92 63.459 102.732 72.869C89.5439 82.281 86.4819 100.601 95.8919 113.789C105.303 126.978 123.624 130.04 136.812 120.629Z"
    fill="white"
    stroke="black"
    strokeWidth="2"
    strokeLinecap="round"
    strokeLinejoin="round"
    />
    <path
    d="M71.8939 77.376L119.772 85.871"
    stroke="black"
    strokeWidth="2"
    strokeLinecap="round"
    strokeLinejoin="round"
    />
    <path
    d="M68.939 87.504L115.437 106.729"
    stroke="black"
    strokeWidth="2"
    strokeLinecap="round"
    strokeLinejoin="round"
    />
    <path
    d="M122.272 107.337C128.119 105.956 131.741 100.097 130.36 94.249C128.98 88.402 123.12 84.78 117.273 86.161C111.425 87.541 107.804 93.401 109.184 99.248C110.565 105.096 116.424 108.717 122.272 107.337Z"
    fill="#D2A904"
    />
    <path
    d="M122.272 107.337C128.119 105.956 131.741 100.097 130.36 94.249C128.98 88.402 123.12 84.78 117.273 86.161C111.425 87.541 107.804 93.401 109.184 99.248C110.565 105.096 116.424 108.717 122.272 107.337Z"
    stroke="black"
    strokeWidth="2"
    strokeLinecap="round"
    strokeLinejoin="round"
    />
    <path
    d="M59.4709 66.683C52.5329 66.683 46.9089 72.307 46.9089 79.245C46.9089 86.183 52.5329 91.807 59.4709 91.807C66.4089 91.807 72.0329 86.183 72.0329 79.245C72.0329 72.307 66.4089 66.683 59.4709 66.683Z"
    fill="white"
    stroke="black"
    strokeWidth="2"
    strokeLinecap="round"
    strokeLinejoin="round"
    />
    <path
    d="M59.471 75.222C58.4043 75.222 57.3813 75.6458 56.627 76.4C55.8727 77.1543 55.449 78.1773 55.449 79.244C55.449 80.3107 55.8727 81.3337 56.627 82.088C57.3813 82.8423 58.4043 83.266 59.471 83.266C60.5377 83.266 61.5607 82.8423 62.315 82.088C63.0692 81.3337 63.493 80.3107 63.493 79.244C63.493 78.1773 63.0692 77.1543 62.315 76.4C61.5607 75.6458 60.5377 75.222 59.471 75.222Z"
    fill="#D2A904"
    />
    <path
    d="M59.471 75.222C58.4043 75.222 57.3813 75.6458 56.627 76.4C55.8727 77.1543 55.449 78.1773 55.449 79.244C55.449 80.3107 55.8727 81.3337 56.627 82.088C57.3813 82.8423 58.4043 83.266 59.471 83.266C60.5377 83.266 61.5607 82.8423 62.315 82.088C63.0692 81.3337 63.493 80.3107 63.493 79.244C63.493 78.1773 63.0692 77.1543 62.315 76.4C61.5607 75.6458 60.5377 75.222 59.471 75.222Z"
    stroke="black"
    strokeWidth="2"
    strokeLinecap="round"
    strokeLinejoin="round"
    />
    <path
    d="M55.448 91.149V95.218H63.493V91.148C60.8831 92.0257 58.0579 92.0267 55.448 91.149Z"
    fill="#D2A904"
    />
    <path
    d="M55.448 91.149V95.218H63.493V91.148C60.8831 92.0257 58.0579 92.0267 55.448 91.149Z"
    stroke="black"
    strokeWidth="2"
    strokeLinecap="round"
    strokeLinejoin="round"
    />
    <path
    d="M63.493 67.341V63.273H55.448V67.341C58.0579 66.4634 60.8831 66.4634 63.493 67.341Z"
    fill="#D2A904"
    />
    <path
    d="M63.493 67.341V63.273H55.448V67.341C58.0579 66.4634 60.8831 66.4634 63.493 67.341Z"
    stroke="black"
    strokeWidth="2"
    strokeLinecap="round"
    strokeLinejoin="round"
    />
    <path
    d="M67.7679 88.681L71.2919 90.715L75.3149 83.748L71.7909 81.714C71.246 84.4131 69.8331 86.8598 67.7679 88.681Z"
    fill="#D2A904"
    />
    <path
    d="M67.7679 88.681L71.2919 90.715L75.3149 83.748L71.7909 81.714C71.246 84.4131 69.8331 86.8598 67.7679 88.681Z"
    stroke="black"
    strokeWidth="2"
    strokeLinecap="round"
    strokeLinejoin="round"
    />
    <path
    d="M51.173 69.81L47.65 67.776L43.627 74.743L47.15 76.777C47.6949 74.078 49.1078 71.6312 51.173 69.81Z"
    fill="#D2A904"
    />
    <path
    d="M51.173 69.81L47.65 67.776L43.627 74.743L47.15 76.777C47.6949 74.078 49.1078 71.6312 51.173 69.81Z"
    stroke="black"
    strokeWidth="2"
    strokeLinecap="round"
    strokeLinejoin="round"
    />
    <path
    d="M71.7909 76.777L75.3149 74.743L71.2919 67.776L67.7679 69.81C69.8333 71.6311 71.2461 74.0779 71.7909 76.777Z"
    fill="#D2A904"
    />
    <path
    d="M71.7909 76.777L75.3149 74.743L71.2919 67.776L67.7679 69.81C69.8333 71.6311 71.2461 74.0779 71.7909 76.777Z"
    stroke="black"
    strokeWidth="2"
    strokeLinecap="round"
    strokeLinejoin="round"
    />
    <path
    d="M47.1509 81.713L43.6279 83.747L47.6509 90.714L51.1739 88.68C49.1086 86.8589 47.6958 84.4121 47.1509 81.713Z"
    fill="#D2A904"
    />
    <path
    d="M47.1509 81.713L43.6279 83.747L47.6509 90.714L51.1739 88.68C49.1086 86.8589 47.6958 84.4121 47.1509 81.713Z"
    stroke="black"
    strokeWidth="2"
    strokeLinecap="round"
    strokeLinejoin="round"
    />
    <path
    d="M88.587 34.433L91.153 37.584L95.082 36.543L95.305 40.601L99.095 42.068L96.891 45.482L99.095 48.896L95.305 50.363L95.082 54.421L91.153 53.38L88.587 56.531L86.021 53.38L82.093 54.421L81.869 50.363L78.079 48.896L80.283 45.482L78.079 42.068L81.869 40.601L82.093 36.543L86.021 37.584L88.587 34.433Z"
    fill="white"
    stroke="black"
    strokeWidth="2"
    strokeLinecap="round"
    strokeLinejoin="round"
    />
    <path
    d="M56.116 77.027L85.523 42.877"
    stroke="black"
    strokeWidth="2"
    strokeLinecap="round"
    strokeLinejoin="round"
    />
    <path
    d="M62.834 81.449L91.769 47.943"
    stroke="black"
    strokeWidth="2"
    strokeLinecap="round"
    strokeLinejoin="round"
    />
    <path
    d="M88.5869 41.46C88.0533 41.4516 87.5234 41.5494 87.028 41.7478C86.5326 41.9462 86.0816 42.2411 85.7013 42.6155C85.321 42.9898 85.019 43.4361 84.8128 43.9283C84.6067 44.4205 84.5005 44.9489 84.5005 45.4825C84.5005 46.0161 84.6067 46.5445 84.8128 47.0367C85.019 47.5289 85.321 47.9752 85.7013 48.3495C86.0816 48.7239 86.5326 49.0188 87.028 49.2172C87.5234 49.4156 88.0533 49.5134 88.5869 49.505C89.6428 49.4884 90.6497 49.0572 91.3905 48.3047C92.1313 47.5521 92.5465 46.5385 92.5465 45.4825C92.5465 44.4265 92.1313 43.4129 91.3905 42.6603C90.6497 41.9078 89.6428 41.4767 88.5869 41.46Z"
    fill="#D2A904"
    />
    <path
    d="M88.5869 41.46C88.0533 41.4516 87.5234 41.5494 87.028 41.7478C86.5326 41.9462 86.0816 42.2411 85.7013 42.6155C85.321 42.9898 85.019 43.4361 84.8128 43.9283C84.6067 44.4205 84.5005 44.9489 84.5005 45.4825C84.5005 46.0161 84.6067 46.5445 84.8128 47.0367C85.019 47.5289 85.321 47.9752 85.7013 48.3495C86.0816 48.7239 86.5326 49.0188 87.028 49.2172C87.5234 49.4156 88.0533 49.5134 88.5869 49.505C89.6428 49.4884 90.6497 49.0572 91.3905 48.3047C92.1313 47.5521 92.5465 46.5385 92.5465 45.4825C92.5465 44.4265 92.1313 43.4129 91.3905 42.6603C90.6497 41.9078 89.6428 41.4767 88.5869 41.46Z"
    stroke="black"
    strokeWidth="2"
    strokeLinecap="round"
    strokeLinejoin="round"
    />
    <path
    d="M180.354 187.253H190.927"
    className="stroke-foreground"
    strokeWidth="2"
    strokeLinecap="round"
    strokeLinejoin="round"
    />
    <path
    d="M185.641 192.539V181.967"
    className="stroke-foreground"
    strokeWidth="2"
    strokeLinecap="round"
    strokeLinejoin="round"
    />
    <path
    d="M165 113.883H170.767"
    className="stroke-foreground"
    strokeWidth="2"
    strokeLinecap="round"
    strokeLinejoin="round"
    />
    <path
    d="M167.884 116.766V111"
    className="stroke-foreground"
    strokeWidth="2"
    strokeLinecap="round"
    strokeLinejoin="round"
    />
    <path
    d="M12.558 177.477L20.034 184.953"
    className="stroke-foreground"
    strokeWidth="2"
    strokeLinecap="round"
    strokeLinejoin="round"
    />
    <path
    d="M12.558 184.953L20.034 177.477"
    className="stroke-foreground"
    strokeWidth="2"
    strokeLinecap="round"
    strokeLinejoin="round"
    />
    <path
    d="M149.185 66.022L152.998 69.835"
    className="stroke-foreground"
    strokeWidth="2"
    strokeLinecap="round"
    strokeLinejoin="round"
    />
    <path
    d="M149.185 69.835L152.998 66.022"
    className="stroke-foreground"
    strokeWidth="2"
    strokeLinecap="round"
    strokeLinejoin="round"
    />
    <path
    d="M131.908 46.713V50.281C131.941 52.3621 132.791 54.3468 134.274 55.8068C135.758 57.2668 137.756 58.0851 139.837 58.0851C141.918 58.0851 143.916 57.2668 145.4 55.8068C146.883 54.3468 147.733 52.3621 147.766 50.281V46.713H131.907H131.908Z"
    fill="white"
    stroke="black"
    strokeWidth="2"
    strokeLinecap="round"
    strokeLinejoin="round"
    />
    <path
    d="M131.908 46.713H147.767V42.253C147.767 38.913 149.118 35.661 151.65 33.483C155.133 30.486 157.318 26.184 157.318 21.4C157.318 12.343 149.492 5.00101 139.837 5.00101C130.182 5.00101 122.356 12.343 122.356 21.4C122.356 26.184 124.541 30.486 128.024 33.483C130.556 35.661 131.907 38.913 131.907 42.253V46.713H131.908Z"
    fill="white"
    stroke="black"
    strokeWidth="2"
    strokeLinecap="round"
    strokeLinejoin="round"
    />
    <path
    d="M141.341 25.121V46.713"
    stroke="black"
    strokeWidth="2"
    strokeLinecap="round"
    strokeLinejoin="round"
    />
    <path
    d="M138.333 46.713V25.118"
    stroke="black"
    strokeWidth="2"
    strokeLinecap="round"
    strokeLinejoin="round"
    />
    <path
    d="M138.453 19.654C137.097 17.565 134.996 19.28 134.996 22.3C134.996 25.32 137.108 27.019 138.453 24.946"
    stroke="black"
    strokeWidth="2"
    strokeLinecap="round"
    strokeLinejoin="round"
    />
    <path
    d="M141.221 19.652C139.867 17.569 137.765 19.275 137.765 22.3C137.765 25.325 139.875 27.018 141.22 24.948"
    stroke="black"
    strokeWidth="2"
    strokeLinecap="round"
    strokeLinejoin="round"
    />
    <path
    d="M142.603 25.856C143.747 25.856 144.675 24.264 144.675 22.3C144.675 20.336 143.747 18.744 142.603 18.744C141.459 18.744 140.531 20.336 140.531 22.3C140.531 24.264 141.459 25.856 142.603 25.856Z"
    stroke="black"
    strokeWidth="2"
    strokeLinecap="round"
    strokeLinejoin="round"
    />
    <path
    d="M131.908 50.458H147.767"
    stroke="black"
    strokeWidth="2"
    strokeLinecap="round"
    strokeLinejoin="round"
    />
    <path
    d="M131.908 48.642H147.767"
    stroke="black"
    strokeWidth="2"
    strokeLinecap="round"
    strokeLinejoin="round"
    />
    <path
    d="M108.522 32.5L115.04 25.984"
    className="stroke-foreground"
    strokeWidth="2"
    strokeLinecap="round"
    strokeLinejoin="round"
    />
    <path
    d="M103.596 21.039H114.649"
    className="stroke-foreground"
    strokeWidth="2"
    strokeLinecap="round"
    strokeLinejoin="round"
    />
    <path
    d="M108.942 10.274L114.799 16.131"
    className="stroke-foreground"
    strokeWidth="2"
    strokeLinecap="round"
    strokeLinejoin="round"
    />
    <path
    d="M172.736 32.5L166.218 25.984"
    className="stroke-foreground"
    strokeWidth="2"
    strokeLinecap="round"
    strokeLinejoin="round"
    />
    <path
    d="M177.122 21.039H166.069"
    className="stroke-foreground"
    strokeWidth="2"
    strokeLinecap="round"
    strokeLinejoin="round"
    />
    <path
    d="M172.316 10.274L166.459 16.131"
    className="stroke-foreground"
    strokeWidth="2"
    strokeLinecap="round"
    strokeLinejoin="round"
    />
</svg>